<svg width="51" height="51" viewBox="0 0 51 51" fill="none" xmlns="http://www.w3.org/2000/svg">
<path d="M28.596 7.87707L28.5541 7.74794L28.7671 8.02297C28.9499 8.22757 29.1008 8.18229 29.2299 8.02297C29.2299 8.02297 30.3586 6.72662 29.4748 5.2173C28.9885 4.21779 27.0699 1.83976 26.0604 1.09515C24.2358 -0.0636743 23.0585 0.826829 23.0585 0.826829C22.9126 0.935836 22.8052 1.09515 22.9126 1.24273L23.1977 1.53621C19.7547 2.22547 19.2483 4.90705 19.0235 6.09438L18.9866 6.2906L18.5238 9.5105C18.3762 10.6341 18.9866 11.2429 20.0599 11.2429H23.5616C24.7825 11.2596 27.3248 11.2915 28.596 7.87707Z" fill="#333333"/>
<path d="M17.3299 6.05247L16.9559 8.65523L5.10267 19.6197C4.6528 19.9953 4.31655 20.489 4.13167 21.0451C4.06028 21.2527 4.00917 21.4667 3.97906 21.6841V22.5394C4.43354 22.5763 4.95845 22.5394 5.53032 22.4119L43.0354 11.6521C43.1602 11.6163 43.2916 11.6099 43.4192 11.6335C43.5468 11.657 43.6673 11.7099 43.771 11.788C43.8747 11.866 43.9589 11.9671 44.0169 12.0832C44.0749 12.1993 44.1052 12.3273 44.1054 12.4571V20.5839C44.1062 20.7639 44.0489 20.9394 43.9419 21.0841C43.8349 21.2289 43.684 21.3352 43.5117 21.3872C36.334 23.5506 7.79934 32.1488 7.09834 32.3383C6.3051 32.5563 4.54925 32.885 3.97906 32.8112V38.0687C4.49056 38.1391 5.02217 38.119 5.53032 37.9831L43.0338 27.1244C43.1586 27.0882 43.2902 27.0816 43.418 27.1051C43.5459 27.1285 43.6665 27.1813 43.7705 27.2594C43.8744 27.3375 43.9588 27.4386 44.0169 27.5549C44.075 27.6712 44.1053 27.7994 44.1054 27.9293V35.7309L45.3699 35.3687L45.3816 35.3653L45.452 35.3418C45.8626 35.2066 46.2578 35.0284 46.631 34.8102C47.3907 34.3574 47.4594 34.0505 47.4594 34.0119V12.1703C47.4594 11.8047 47.3085 11.1574 46.9111 10.5318C46.5388 9.94486 46.0105 9.47026 45.3179 9.24051L31.4706 5.99378C31.4094 5.44133 31.2347 4.90748 30.9575 4.42575C30.617 3.75326 29.9462 2.83257 29.2989 2.04102L46.148 5.99042C46.1875 6.00015 46.2267 6.01134 46.2654 6.02396C47.8837 6.52707 49.0224 7.60037 49.7419 8.73405C50.4462 9.84089 50.8135 11.1037 50.8135 12.1703V34.0119C50.8135 35.9908 49.2321 37.1648 48.3432 37.693C47.7208 38.0596 47.0586 38.3539 46.3694 38.5701L46.3258 38.5835L46.3107 38.5869L46.3056 38.5886C46.3056 38.5886 46.0608 38.659 46.3023 38.5886L5.36932 50.3378C5.34543 50.3445 5.32139 50.3507 5.29721 50.3563C4.10149 50.6414 2.74309 50.5659 1.7419 49.5429C0.844691 48.6273 0.625 47.3209 0.625 46.1553V21.612L0.626677 21.5214V21.4963L0.631708 21.4594C0.641711 21.3097 0.660188 21.1608 0.68705 21.0133C0.734007 20.7416 0.816182 20.3743 0.960406 19.9534C1.32925 18.864 1.98024 17.8919 2.84707 17.136L18.6044 2.56257C18.5685 2.61404 18.5332 2.66603 18.4988 2.71854C17.7341 3.90252 17.501 5.13849 17.3869 5.7439L17.3802 5.78415C17.3644 5.87376 17.3476 5.96321 17.3299 6.05247Z" fill="#333333"/>
</svg>
