<svg width="41" height="51" viewBox="0 0 41 51" fill="none" xmlns="http://www.w3.org/2000/svg">
<path fill-rule="evenodd" clip-rule="evenodd" d="M35.2903 0.5C35.9932 0.500303 36.688 0.648777 37.3296 0.935735C37.9712 1.22269 38.5451 1.64169 39.0138 2.16539C39.4826 2.68909 39.8356 3.30572 40.05 3.97507C40.2643 4.64442 40.3352 5.35143 40.2578 6.05L35.8153 46.05C35.6799 47.2734 35.098 48.4039 34.181 49.225C33.2639 50.0461 32.0763 50.5001 30.8453 50.5H10.3203C9.08943 50.5001 7.90175 50.0461 6.98471 49.225C6.06768 48.4039 5.48574 47.2734 5.35034 46.05L0.905343 6.05C0.828008 5.35122 0.898905 4.64399 1.11341 3.97447C1.32791 3.30495 1.68119 2.6882 2.1502 2.16446C2.6192 1.64072 3.19339 1.22177 3.83527 0.93497C4.47715 0.648167 5.1723 0.499952 5.87534 0.5H35.2903ZM35.2903 5.5H5.87534L6.93784 15.0575C7.83537 14.8865 8.74315 14.7746 9.65534 14.7225C12.6528 14.5475 16.7953 14.9075 21.5678 16.9525C25.5453 18.6575 28.9028 18.9225 31.2178 18.785C32.1063 18.7378 32.9889 18.6123 33.8553 18.41L35.2903 5.5ZM33.2778 23.6C32.7478 23.675 32.1553 23.74 31.5103 23.775C28.5128 23.9525 24.3703 23.5925 19.5978 21.55C15.6203 19.8425 12.2628 19.5775 9.94784 19.715C9.12184 19.7605 8.30085 19.8726 7.49284 20.05L10.3203 45.5H30.8453L33.2778 23.6ZM18.0828 28C18.0828 28.663 17.8194 29.2989 17.3506 29.7678C16.8818 30.2366 16.2459 30.5 15.5828 30.5C14.9198 30.5 14.2839 30.2366 13.8151 29.7678C13.3462 29.2989 13.0828 28.663 13.0828 28C13.0828 27.337 13.3462 26.7011 13.8151 26.2322C14.2839 25.7634 14.9198 25.5 15.5828 25.5C16.2459 25.5 16.8818 25.7634 17.3506 26.2322C17.8194 26.7011 18.0828 27.337 18.0828 28ZM23.0828 38C23.7459 38 24.3818 37.7366 24.8506 37.2678C25.3194 36.7989 25.5828 36.163 25.5828 35.5C25.5828 34.837 25.3194 34.2011 24.8506 33.7322C24.3818 33.2634 23.7459 33 23.0828 33C22.4198 33 21.7839 33.2634 21.3151 33.7322C20.8462 34.2011 20.5828 34.837 20.5828 35.5C20.5828 36.163 20.8462 36.7989 21.3151 37.2678C21.7839 37.7366 22.4198 38 23.0828 38Z" fill="#333333"/>
</svg>
